# xmcd
#
# Track frame offsets:
#	150
#	16427
#	30340
#	44175
#	58980
#	72795
#	84722
#	96852
#	111387
#	127477
#	141852
#	154555
#	165180
#	178410
#	193955
#	212487
#	228482
#	240767
#	265240
#	276282
#
# Disc length: 4354 seconds
#
# Revision: 2
# Processed by: cddbd v1.5.2PL0 Copyright (c) Steve Scherf et al.
# Submitted via: EZCDAudioConverter 3.1.5.1
#
DISCID=29110014
DTITLE=Various Artist - Μάνος Ελευθερίου ‎– Ταξίδια Της Ψυχής
DYEAR=1992
DGENRE=Λαικό
TTITLE0=Γιώργος Νταλάρας - Οι Ελεύθεροι Κι Ωραίοι
TTITLE1=Χάρις Αλεξίου - Η Διαθήκη
TTITLE2=Γρηγόρης Μπιθικώτσης - 	Μέσα Σε Κήπο Κάθησα
TTITLE3=Δήμητρα Γαλάνη - Ρημαγμένοι Κήποι
TTITLE4=Γιώργος Νταλάρας - Άνοιξα Το Συρτάρι Μου
TTITLE5=Ελένη Βιτάλη - Οι Πληρωμένες Αγάπες
TTITLE6=Χάρις Αλεξίου - Δήμητρα Γαλάνη - Το Τραίνο Φεύγει Στις Οκτώ
TTITLE7=Βασίλης Παπακωνσταντίνου - Στο Παζάρι Του Ληστή
TTITLE8=Γιώργος Νταλάρας - Πρώτη Του Δεκέμβρη
TTITLE9=Χάρις Αλεξίου - Στο Βλέμα Σου Το Γκρίζο
TTITLE10=Γιώργος Νταλάρας - Αν Ήταν Άστρα Τα Φιλιά Σου
TTITLE11=Γιάννης Καλατζής - Τα Γράμματα Για Σένα
TTITLE12=Γιώργος Νταλάρας - Παραπονεμένα Λόγια
TTITLE13=Μανώλης Μητσιάς - Μη Χτυπάς Σ' Ένα Σπίτι Κλειστό
TTITLE14=Λάκης Χαλκιάς - Χαράλαμπος Γαργανουράκης - Τάνια Τσανακλίδου - Μαλαμα
TTITLE14=τένια Λόγια
TTITLE15=Χάρις Αλεξίου - Κάτω Απ' Την Μαρκίζα
TTITLE16=Γιώργος Νταλάρας - Σαν Σβησμένο Καρβουνάκι
TTITLE17=Γιώργος Νταλάρας - Είν' Αρρώστια Τα Τραγούδια
TTITLE18=Μαρία Φαραντούρη - Ποιος Τη Ζωή Μου
TTITLE19=Δημήτρης Μητροπάνος - Άλλος Για Χίο Τράβηξε,Κι Αν Φταίει Κανείς,Η Σού
TTITLE19=στα Πήγαινε Μπροστά
EXTD=
EXTT0=
EXTT1=
EXTT2=
EXTT3=
EXTT4=
EXTT5=
EXTT6=
EXTT7=
EXTT8=
EXTT9=
EXTT10=
EXTT11=
EXTT12=
EXTT13=
EXTT14=
EXTT15=
EXTT16=
EXTT17=
EXTT18=
EXTT19=
PLAYORDER=
